<?xml version="1.0" encoding="utf-8"?>
<!-- Generator: Adobe Illustrator 24.1.2, SVG Export Plug-In . SVG Version: 6.00 Build 0)  -->
<svg version="1.1" id="Layer_1" xmlns="http://www.w3.org/2000/svg" xmlns:xlink="http://www.w3.org/1999/xlink" x="0px" y="0px"
	 viewBox="0 0 595.28 595.28" style="enable-background:new 0 0 595.28 595.28;" xml:space="preserve">
<style type="text/css">
	.st0{fill:url(#SVGID_1_);}
	.st1{fill:none;stroke:#8367AC;stroke-width:21;stroke-miterlimit:10;}
	.st2{fill:url(#SVGID_2_);}
</style>
<g>
	<linearGradient id="SVGID_1_" gradientUnits="userSpaceOnUse" x1="210.2239" y1="276.9031" x2="250.2191" y2="50.0791">
		<stop  offset="0" style="stop-color:#8367AC"/>
		<stop  offset="0.4302" style="stop-color:#B790BE"/>
		<stop  offset="0.8053" style="stop-color:#DFAECB"/>
		<stop  offset="1" style="stop-color:#EEBAD0"/>
	</linearGradient>
	<circle class="st0" cx="230.22" cy="163.49" r="115.14"/>
	<g>
		<path class="st1" d="M235.84,321.61c-105.39,0-190.83,85.44-190.83,190.83h315.33l-5.99-52.14c0-58.72,45.8-59.11,4.08-94.11
			C325.27,338.37,282.51,321.61,235.84,321.61z"/>
	</g>
	
		<linearGradient id="SVGID_2_" gradientUnits="userSpaceOnUse" x1="999.3627" y1="-87.5092" x2="1247.5643" y2="-87.5092" gradientTransform="matrix(0 -1 1 0 529.9045 1562.952)">
		<stop  offset="0" style="stop-color:#8367AC"/>
		<stop  offset="0.2887" style="stop-color:#8669AD"/>
		<stop  offset="0.4699" style="stop-color:#8E70B0"/>
		<stop  offset="0.6215" style="stop-color:#9D7BB5"/>
		<stop  offset="0.7567" style="stop-color:#B18BBC"/>
		<stop  offset="0.8798" style="stop-color:#CCA0C5"/>
		<stop  offset="0.9948" style="stop-color:#ECB9CF"/>
		<stop  offset="1" style="stop-color:#EEBAD0"/>
	</linearGradient>
	<path class="st2" d="M318.29,439.49c0,68.54,55.56,124.1,124.1,124.1s124.1-55.56,124.1-124.1c0-68.54-55.56-124.1-124.1-124.1
		S318.29,370.95,318.29,439.49z M453.74,391.33h0.02v37.31h34.68c6.28,0,11.37,5.09,11.37,11.37c0,6.28-5.09,11.37-11.37,11.37
		h-34.68v35.84c0,6.28-5.09,11.37-11.37,11.37c-6.28,0-11.37-5.09-11.37-11.37v-35.84h-38.46v-0.02
		c-6.07-0.23-10.93-5.22-10.93-11.35s4.85-11.11,10.93-11.35v-0.02h38.46v-37.31h0.02c0.23-6.07,5.22-10.93,11.35-10.93
		S453.51,385.26,453.74,391.33z"/>
</g>
</svg>
