<?xml version="1.0" encoding="utf-8"?>
<!-- Generator: Adobe Illustrator 24.1.2, SVG Export Plug-In . SVG Version: 6.00 Build 0)  -->
<svg version="1.1" id="Layer_1" xmlns="http://www.w3.org/2000/svg" xmlns:xlink="http://www.w3.org/1999/xlink" x="0px" y="0px"
	 viewBox="0 0 595.28 595.28" style="enable-background:new 0 0 595.28 595.28;" xml:space="preserve">
<style type="text/css">
	.st0{fill:#8367AC;}
	.st1{fill:url(#SVGID_1_);}
	.st2{fill:url(#SVGID_2_);}
</style>
<g>
	<g>
		
			<ellipse transform="matrix(0.3827 -0.9239 0.9239 0.3827 -244.947 550.4774)" class="st0" cx="289.45" cy="458.53" rx="15.12" ry="15.12"/>
		<polygon class="st0" points="355.75,556.16 342.18,487.56 328.58,490.25 341.62,556.16 236.88,556.16 249.91,490.25 
			236.31,487.56 222.75,556.16 175.74,556.16 175.74,570.02 400.69,570.02 400.69,556.16 		"/>
	</g>
	<linearGradient id="SVGID_1_" gradientUnits="userSpaceOnUse" x1="288.2573" y1="493.2308" x2="288.2573" y2="217.6958">
		<stop  offset="0" style="stop-color:#8367AC"/>
		<stop  offset="0.4574" style="stop-color:#B68EBD"/>
		<stop  offset="1" style="stop-color:#EEBAD0"/>
	</linearGradient>
	<path class="st1" d="M438.23,217.7H138.29c-25,0-45.27,20.27-45.27,45.27v185c0,25,20.27,45.27,45.27,45.27h299.94
		c25,0,45.27-20.27,45.27-45.27v-185C483.49,237.96,463.23,217.7,438.23,217.7z M471.75,433.87c0,25-20.27,45.27-45.27,45.27H150.37
		c-25,0-45.27-20.27-45.27-45.27v-4.75h366.65V433.87z"/>
</g>
<linearGradient id="SVGID_2_" gradientUnits="userSpaceOnUse" x1="-294.7276" y1="-692.1805" x2="-294.7276" y2="-780.08" gradientTransform="matrix(0.6617 -0.7498 0.7498 0.6617 1148.595 471.3137)">
	<stop  offset="0" style="stop-color:#8367AC"/>
	<stop  offset="0.253" style="stop-color:#B68EBD"/>
	<stop  offset="0.5532" style="stop-color:#EEBAD0"/>
</linearGradient>
<path class="st2" d="M236.46,75.65l-43.97-38.8c-3.95-3.49-9.98-3.11-13.47,0.84c-0.06,0.06-0.1,0.13-0.15,0.19
	c0,0-0.01,0-0.01,0.01c-0.12,0.14-0.24,0.3-0.36,0.46c-0.99,1.34-1.58,2.87-1.78,4.43c-7.18,29.53,15.19,157.24,15.19,157.24
	s131.21,6.38,159.3-3.11c1-0.24,1.97-0.65,2.86-1.21c0.97-0.54,1.66-1.12,2.05-1.74c3.49-3.95,3.11-9.98-0.84-13.47l-44.66-39.41
	c12.58-13.89,78.1-78.49,169.98-30.01C414.91-11.96,281.82,17.13,236.46,75.65z"/>
</svg>
