<?xml version="1.0" encoding="utf-8"?>
<!-- Generator: Adobe Illustrator 24.1.2, SVG Export Plug-In . SVG Version: 6.00 Build 0)  -->
<svg version="1.1" id="Layer_1" xmlns="http://www.w3.org/2000/svg" xmlns:xlink="http://www.w3.org/1999/xlink" x="0px" y="0px"
	 viewBox="0 0 141.7 141.7" style="enable-background:new 0 0 141.7 141.7;" xml:space="preserve">
<style type="text/css">
	.st0{fill:#8367AC;}
	.st1{fill:url(#SVGID_1_);}
</style>
<g>
	<g>
		<ellipse class="st0" cx="71.3" cy="92.1" rx="5" ry="5"/>
		<polygon class="st0" points="93,124.1 88.6,101.6 84.1,102.5 88.4,124.1 54,124.1 58.3,102.5 53.8,101.6 49.4,124.1 34,124.1 
			34,128.7 107.7,128.7 107.7,124.1 		"/>
	</g>
	
		<linearGradient id="SVGID_1_" gradientUnits="userSpaceOnUse" x1="70.8661" y1="38.8759" x2="70.8661" y2="129.2622" gradientTransform="matrix(1 0 0 -1 0 142.342)">
		<stop  offset="0" style="stop-color:#8367AC"/>
		<stop  offset="0.4574" style="stop-color:#B68EBD"/>
		<stop  offset="1" style="stop-color:#EEBAD0"/>
	</linearGradient>
	<path class="st1" d="M120.1,13.1H21.7c-8.2,0-14.9,6.6-14.9,14.9v60.7c0,8.2,6.6,14.9,14.9,14.9h98.4c8.2,0,14.9-6.6,14.9-14.9
		V27.9C134.9,19.7,128.3,13.1,120.1,13.1z M131.1,84c0,8.2-6.6,14.9-14.9,14.9H25.6c-8.2,0-14.9-6.6-14.9-14.9v-1.6h120.3V84z"/>
</g>
</svg>
