<?xml version="1.0" encoding="utf-8"?>
<!-- Generator: Adobe Illustrator 24.1.2, SVG Export Plug-In . SVG Version: 6.00 Build 0)  -->
<svg version="1.1" id="Layer_1" xmlns="http://www.w3.org/2000/svg" xmlns:xlink="http://www.w3.org/1999/xlink" x="0px" y="0px"
	 viewBox="0 0 595.28 595.28" style="enable-background:new 0 0 595.28 595.28;" xml:space="preserve">
<style type="text/css">
	.st0{fill:#8367AC;}
	.st1{fill:url(#SVGID_1_);}
	.st2{fill:url(#SVGID_2_);}
</style>
<g>
	<g>
		
			<ellipse transform="matrix(0.3827 -0.9239 0.9239 0.3827 -153.5058 392.2894)" class="st0" cx="216.8" cy="311.01" rx="15.74" ry="15.74"/>
		<polygon class="st0" points="285.8,412.61 271.68,341.22 257.52,344.02 271.09,412.61 162.08,412.61 175.65,344.02 161.5,341.22 
			147.38,412.61 98.45,412.61 98.45,427.04 332.57,427.04 332.57,412.61 		"/>
	</g>
	<linearGradient id="SVGID_1_" gradientUnits="userSpaceOnUse" x1="215.5567" y1="347.1242" x2="215.5567" y2="60.3678">
		<stop  offset="0" style="stop-color:#8367AC"/>
		<stop  offset="0.1183" style="stop-color:#9776B3"/>
		<stop  offset="0.3805" style="stop-color:#BC93BF"/>
		<stop  offset="0.6234" style="stop-color:#D8A9C8"/>
		<stop  offset="0.8375" style="stop-color:#E8B5CE"/>
		<stop  offset="1" style="stop-color:#EEBAD0"/>
	</linearGradient>
	<path class="st1" d="M371.63,60.37H59.48c-26.02,0-47.11,21.09-47.11,47.11v192.54c0,26.02,21.09,47.11,47.11,47.11h312.15
		c26.02,0,47.11-21.09,47.11-47.11V107.48C418.74,81.46,397.65,60.37,371.63,60.37z M406.52,285.35c0,26.02-21.09,47.11-47.11,47.11
		H72.06c-26.02,0-47.11-21.09-47.11-47.11v-4.95h381.58V285.35z"/>
</g>
<linearGradient id="SVGID_2_" gradientUnits="userSpaceOnUse" x1="2856.2764" y1="917.1358" x2="2856.2764" y2="631.2758" gradientTransform="matrix(-1 8.591033e-03 8.591033e-03 1 3293.3113 -406.713)">
	<stop  offset="0.4015" style="stop-color:#8367AC"/>
	<stop  offset="0.6752" style="stop-color:#B68EBD"/>
	<stop  offset="1" style="stop-color:#EEBAD0"/>
</linearGradient>
<path class="st2" d="M455.83,319.93l-0.52-61.03c-0.05-5.48,4.36-9.97,9.85-10.02c0.09,0,0.17,0.01,0.26,0.01
	c0.01,0,0.01,0,0.02-0.01c0.2,0,0.4,0.01,0.61,0.03c1.73,0.14,3.33,0.71,4.7,1.62C498.85,265.03,584,369.71,584,369.71
	s-84.46,107.51-111.07,123.12c-0.87,0.62-1.85,1.11-2.91,1.42c-1.08,0.4-2.01,0.55-2.76,0.42c-5.48,0.05-9.97-4.36-10.02-9.85
	l-0.53-61.98c-19.5,0.42-114.97,7.88-139.51,113.18C265.26,400.49,378.89,315.68,455.83,319.93z"/>
</svg>
